{"title":"Ashley 2013 HDRiP XViD SAF","uid":8822278,"size":1567402337,"categoryP":"video","categoryS":"movies","magnet":"?xt=urn:btih:d6ab6a52d1008d5d87314e33af1378a20899b415&amp;dn=Ashley+2013+HDRiP+XViD+SAF&amp;tr=udp%3A%2F%2Ftracker.openbittorrent.com%3A80&amp;tr=udp%3A%2F%2Fopen.demonii.com%3A1337&amp;tr=udp%3A%2F%2Ftracker.coppersurfer.tk%3A6969&amp;tr=udp%3A%2F%2Fexodus.desync.com%3A6969","seeders":1,"leechers":2,"uploader":"srkfan","files":3,"time":1376731580,"description":"[b]SilverTorrent - Clean And Verified Torrents Download[/b]\n\n------------------------------------------------------\n\n[IMG]http://img844.imageshack.us/img844/6277/eofb.jpg[/IMG]\nFormat                                   : AVI\nFormat/Info                              : Audio Video Interleave\nFile size                                : 1.44 GiB\nDuration                                 : 1h 30mn\nOverall bit rate                         : 2 270 Kbps\nWriting application                      : VirtualDubMod 1.5.10.2 (build 2540/release)\nWriting library                          : VirtualDubMod build 2540/release\n\nVideo\nID                                       : 0\nFormat                                   : MPEG-4 Visual\nFormat profile                           : Advanced Simple@L5\nFormat settings, BVOP                    : 2\nFormat settings, QPel                    : No\nFormat settings, GMC                     : No warppoints\nFormat settings, Matrix                  : Default (H.263)\nMuxing mode                              : Packed bitstream\nCodec ID                                 : XVID\nCodec ID/Hint                            : XviD\nDuration                                 : 1h 30mn\nBit rate                                 : 1 876 Kbps\nWidth                                    : 720 pixels\nHeight                                   : 400 pixels\nDisplay aspect ratio                     : 16:9\nFrame rate                               : 23.976 fps\nColor space                              : YUV\nChroma subsampling                       : 4:2:0\nBit depth                                : 8 bits\nScan type                                : Progressive\nCompression mode                         : Lossy\nBits/(Pixel*Frame)                       : 0.272\nStream size                              : 1.19 GiB (83%)\nWriting library                          : XviD 64\n\nAudio\nID                                       : 1\nFormat                                   : AC-3\nFormat/Info                              : Audio Coding 3\nMode extension                           : CM (complete main)\nFormat settings, Endianness              : Big\nCodec ID                                 : 2000\nDuration                                 : 1h 30mn\nBit rate mode                            : Constant\nBit rate                                 : 384 Kbps\nChannel(s)                               : 6 channels\nChannel positions                        : Front: L C R, Side: L R, LFE\nSampling rate                            : 48.0 KHz\nBit depth                                : 16 bits\nCompression mode                         : Lossy\nStream size                              : 249 MiB (17%)\nAlignment                                : Split accross interleaves\nInterleave, duration                     : 42 ms (1.00 video frame)\nInterleave, preload duration             : 500 ms\n &lt;a href=&quot;\nhttp://www.imdb.com/title/tt2084093/&quot; rel=&quot;nofollow&quot; target=&quot;_NEW&quot;&gt;\nhttp://www.imdb.com/title/tt2084093/&lt;/a&gt;\n\nStoryline\n\nA teenage girl, distraught from her vain attempt to connect with her estranged mother, resorts to cutting herself. When she develops an online relationship with an older woman, she learns to accept her sexuality and the endless solitude of sprawling suburbia. \n\n\nSource Used        1080p               - Thanks\n\nGreets now going out to !\n\nJUSTiCE,MiLLENiUM,KiSSMYACE,FooKaS and the rest can just KMA   \n\n\nFor Screens Go here:\n &lt;a href=&quot;\nhttp://www.silvertorrent.me/torrent/141282/Ashley+2013+HDRiP+XViD+SAF&quot; rel=&quot;nofollow&quot; target=&quot;_NEW&quot;&gt;\nhttp://www.silvertorrent.me/torrent/141282/Ashley+2013+HDRiP+XViD+SAF&lt;/a&gt;","torrent":{"xt":"urn:btih:d6ab6a52d1008d5d87314e33af1378a20899b415","amp;dn":"Ashley+2013+HDRiP+XViD+SAF","amp;tr":["udp%3A%2F%2Ftracker.openbittorrent.com%3A80","udp%3A%2F%2Fopen.demonii.com%3A1337","udp%3A%2F%2Ftracker.coppersurfer.tk%3A6969","udp%3A%2F%2Fexodus.desync.com%3A6969"],"infoHash":"d6ab6a52d1008d5d87314e33af1378a20899b415","infoHashBuffer":{"type":"Buffer","data":[214,171,106,82,209,0,141,93,135,49,78,51,175,19,120,162,8,153,180,21]},"announce":[],"urlList":[]}}